<?xml version="1.0" encoding="UTF-8"?>
<svg width="876px" height="438px" viewBox="0 0 876 438" version="1.1" xmlns="http://www.w3.org/2000/svg" xmlns:xlink="http://www.w3.org/1999/xlink">
    <title>Horizontal</title>
    <g id="Page-1" stroke="none" stroke-width="1" fill="none" fill-rule="evenodd">
        <g id="Hashtag" transform="translate(768, -369)" fill="#4A60B2">
            <g id="Horizontal" transform="translate(-330.48, 588) rotate(-90) translate(330.48, -588)translate(-548.98, 150.5)">
                <path d="M76,5.68434189e-14 C117.973641,4.26325641e-14 152,34.026359 152,76 L152,799 C152,840.973641 117.973641,875 76,875 C34.026359,875 0,840.973641 0,799 L0,76 C0,34.026359 34.026359,5.68434189e-14 76,5.68434189e-14 Z" id="Rectangle"></path>
                <path d="M361,5.68434189e-14 C402.973641,4.26325641e-14 437,34.026359 437,76 L437,799 C437,840.973641 402.973641,875 361,875 C319.026359,875 285,840.973641 285,799 L285,76 C285,34.026359 319.026359,5.68434189e-14 361,5.68434189e-14 Z" id="Rectangle-Copy"></path>
            </g>
        </g>
    </g>
</svg>